<mxfile host="65bd71144e">
    <diagram id="IgUMOur1TlqYA0e4b4XV" name="page-1">
        <mxGraphModel dx="1388" dy="920" grid="0" gridSize="10" guides="1" tooltips="1" connect="1" arrows="1" fold="1" page="1" pageScale="1" pageWidth="850" pageHeight="1100" math="0" shadow="0">
            <root>
                <mxCell id="0"/>
                <mxCell id="1" parent="0"/>
                <mxCell id="Iu7elVV2P66PyxeBPG_O-1" value="&lt;font style=&quot;font-size: 24px;&quot; face=&quot;Helvetica&quot;&gt;&lt;b&gt;Algoritma Deskriptif Menentukan Nilai Terbesar :&lt;br&gt;&lt;/b&gt;&lt;br&gt;&lt;div style=&quot;text-align: left;&quot;&gt;1. mulai&lt;/div&gt;&lt;div style=&quot;text-align: left;&quot;&gt;2. masukan x dan y&lt;/div&gt;&lt;div style=&quot;text-align: left;&quot;&gt;3. cek x dan y adalah number&lt;/div&gt;&lt;div style=&quot;text-align: left;&quot;&gt;4. jika &quot;false&quot; output &quot;masukan angka kembali masukan&amp;nbsp; nilai x dan y&lt;/div&gt;&lt;div style=&quot;text-align: left;&quot;&gt;&lt;span style=&quot;background-color: initial;&quot;&gt;5. jika &quot;true&quot; cek&amp;nbsp; x lebih besar dari y&lt;/span&gt;&lt;br&gt;&lt;/div&gt;&lt;div style=&quot;text-align: left;&quot;&gt;6. jika &quot;true&quot; maka output &quot;x adalah nilai terbesar&quot;&lt;/div&gt;&lt;div style=&quot;text-align: left;&quot;&gt;7. jika tidak maka output &quot;y adalah nilai terbesar&quot;&lt;/div&gt;&lt;div style=&quot;text-align: left;&quot;&gt;8. selesai&lt;/div&gt;&lt;/font&gt;" style="text;html=1;align=center;verticalAlign=middle;resizable=0;points=[];autosize=1;strokeColor=default;fillColor=none;fontSize=20;fontFamily=Architects Daughter;sketch=1;hachureGap=4;jiggle=2;curveFitting=1;fontSource=https%3A%2F%2Ffonts.googleapis.com%2Fcss%3Ffamily%3DArchitects%2BDaughter;" parent="1" vertex="1">
                    <mxGeometry x="52" y="50" width="747" height="300" as="geometry"/>
                </mxCell>
                <mxCell id="Iu7elVV2P66PyxeBPG_O-2" value="&lt;b style=&quot;font-size: 24px;&quot;&gt;Algoritma Pseudocode Menentukan Nilai Terbesar :&lt;br&gt;&lt;/b&gt;&lt;br&gt;&lt;div style=&quot;text-align: left;&quot;&gt;Deklarasi :&lt;br style=&quot;border-color: var(--border-color);&quot;&gt;&lt;span style=&quot;border-color: var(--border-color);&quot;&gt;&#9;&lt;/span&gt;x, y : num;&lt;br style=&quot;border-color: var(--border-color);&quot;&gt;&lt;br style=&quot;border-color: var(--border-color);&quot;&gt;Mulai&lt;br style=&quot;border-color: var(--border-color);&quot;&gt;&lt;span style=&quot;border-color: var(--border-color);&quot;&gt;&#9;&lt;/span&gt;&lt;span style=&quot;white-space: pre;&quot;&gt;&#9;&lt;/span&gt;input (x,&amp;nbsp; y)&lt;br style=&quot;border-color: var(--border-color);&quot;&gt;&lt;span style=&quot;border-color: var(--border-color);&quot;&gt;&#9;&lt;/span&gt;&lt;span style=&quot;white-space: pre;&quot;&gt;&#9;&lt;/span&gt;cek x == num &amp;amp;&amp;amp; y == num&lt;br style=&quot;border-color: var(--border-color);&quot;&gt;&lt;span style=&quot;white-space: pre;&quot;&gt;&#9;&lt;/span&gt;jika &quot;false&quot; input (x dan y)&lt;br style=&quot;border-color: var(--border-color);&quot;&gt;&lt;span style=&quot;white-space: pre;&quot;&gt;&#9;&lt;/span&gt;jika &quot;true&quot; cek x &amp;gt; y&lt;br style=&quot;border-color: var(--border-color);&quot;&gt;&lt;span style=&quot;border-color: var(--border-color);&quot;&gt;&lt;/span&gt;&lt;span style=&quot;white-space: pre;&quot;&gt;&#9;&lt;/span&gt;jika &quot;true&quot; output (cetak &quot;x adalah nilai terbesar&quot;)&lt;br style=&quot;border-color: var(--border-color);&quot;&gt;&lt;span style=&quot;border-color: var(--border-color);&quot;&gt;&lt;/span&gt;&lt;span style=&quot;white-space: pre;&quot;&gt;&#9;&lt;/span&gt;jika &quot;false&quot; output (cetak &quot;y adalah nilai terbesar&quot;)&lt;br style=&quot;border-color: var(--border-color);&quot;&gt;Selesai&lt;br&gt;&lt;/div&gt;" style="text;html=1;align=center;verticalAlign=middle;resizable=0;points=[];autosize=1;strokeColor=default;fillColor=none;fontSize=20;fontFamily=Helvetica;sketch=1;hachureGap=4;jiggle=2;curveFitting=1;fontSource=https%3A%2F%2Ffonts.googleapis.com%2Fcss%3Ffamily%3DArchitects%2BDaughter;" parent="1" vertex="1">
                    <mxGeometry x="123" y="422" width="604" height="329" as="geometry"/>
                </mxCell>
                <mxCell id="KxriSq-2_5h9siK2SVVC-1" value="&lt;font style=&quot;border-color: var(--border-color); font-family: Helvetica; font-size: 24px;&quot;&gt;&lt;b&gt;Algoritma Deskriptif Menetukan nilai ganjil genap :&lt;br style=&quot;border-color: var(--border-color);&quot;&gt;&lt;/b&gt;&lt;/font&gt;&lt;br style=&quot;border-color: var(--border-color); font-family: Helvetica;&quot;&gt;&lt;div style=&quot;border-color: var(--border-color); font-family: Helvetica; text-align: left;&quot;&gt;1. mulai&lt;/div&gt;&lt;div style=&quot;border-color: var(--border-color); font-family: Helvetica; text-align: left;&quot;&gt;2. masukan x&lt;/div&gt;&lt;div style=&quot;border-color: var(--border-color); font-family: Helvetica; text-align: left;&quot;&gt;3. cek x adalah number&lt;/div&gt;&lt;div style=&quot;border-color: var(--border-color); font-family: Helvetica; text-align: left;&quot;&gt;4. jika &quot;false&quot; masukan x&lt;/div&gt;&lt;div style=&quot;border-color: var(--border-color); font-family: Helvetica; text-align: left;&quot;&gt;5. jika &quot;true&quot; cek&amp;nbsp; x di bagi 2 hasilnya 0&lt;/div&gt;&lt;div style=&quot;border-color: var(--border-color); font-family: Helvetica; text-align: left;&quot;&gt;6. jika &quot;true&quot; output &quot;genap&quot;&lt;/div&gt;&lt;div style=&quot;border-color: var(--border-color); font-family: Helvetica; text-align: left;&quot;&gt;7. jika &quot;false&quot; output &quot;ganjil&lt;/div&gt;&lt;div style=&quot;border-color: var(--border-color); font-family: Helvetica; text-align: left;&quot;&gt;8. Selesai&lt;/div&gt;" style="text;html=1;align=center;verticalAlign=middle;resizable=0;points=[];autosize=1;strokeColor=default;fillColor=none;fontSize=20;fontFamily=Architects Daughter;sketch=1;hachureGap=4;jiggle=2;curveFitting=1;fontSource=https%3A%2F%2Ffonts.googleapis.com%2Fcss%3Ffamily%3DArchitects%2BDaughter;" parent="1" vertex="1">
                    <mxGeometry x="994" y="53" width="595" height="257" as="geometry"/>
                </mxCell>
                <mxCell id="_5mfeIYPOjXKl39lDaHY-1" value="&lt;b style=&quot;border-color: var(--border-color); font-family: Helvetica; text-align: left; font-size: 24px;&quot;&gt;Algoritma Pseudocode Menentukan nilai ganjil genap :&lt;br style=&quot;border-color: var(--border-color);&quot;&gt;&lt;/b&gt;&lt;br style=&quot;border-color: var(--border-color); font-family: Helvetica; text-align: left;&quot;&gt;&lt;div style=&quot;text-align: left;&quot;&gt;&lt;span style=&quot;font-family: Helvetica; background-color: initial;&quot;&gt;Deklarasi :&lt;/span&gt;&lt;/div&gt;&lt;span style=&quot;border-color: var(--border-color); font-family: Helvetica;&quot;&gt;&lt;div style=&quot;text-align: left;&quot;&gt;&lt;span style=&quot;background-color: initial;&quot;&gt;&lt;span style=&quot;white-space: pre;&quot;&gt;&#9;&lt;/span&gt;x : num;&lt;/span&gt;&lt;/div&gt;&#9;&lt;/span&gt;&lt;div style=&quot;text-align: left;&quot;&gt;&lt;font face=&quot;Helvetica&quot;&gt;&lt;br&gt;&lt;/font&gt;&lt;/div&gt;&lt;span style=&quot;font-family: Helvetica;&quot;&gt;&lt;div style=&quot;text-align: left;&quot;&gt;&lt;span style=&quot;background-color: initial;&quot;&gt;Mulai&lt;/span&gt;&lt;/div&gt;&lt;/span&gt;&lt;span style=&quot;border-color: var(--border-color); font-family: Helvetica;&quot;&gt;&lt;div style=&quot;text-align: left;&quot;&gt;&lt;span style=&quot;background-color: initial;&quot;&gt;&lt;span style=&quot;white-space: pre;&quot;&gt;&#9;&lt;/span&gt;input (x)&lt;/span&gt;&lt;/div&gt;&#9;&lt;/span&gt;&lt;span style=&quot;border-color: var(--border-color); font-family: Helvetica;&quot;&gt;&lt;div style=&quot;text-align: left;&quot;&gt;&lt;span style=&quot;background-color: initial;&quot;&gt;&lt;span style=&quot;white-space: pre;&quot;&gt;&#9;&lt;/span&gt;cek x == num&lt;/span&gt;&lt;/div&gt;&#9;&lt;/span&gt;&lt;span style=&quot;border-color: var(--border-color); font-family: Helvetica;&quot;&gt;&lt;div style=&quot;text-align: left;&quot;&gt;&lt;span style=&quot;background-color: initial;&quot;&gt;&lt;span style=&quot;white-space: pre;&quot;&gt;&#9;&lt;/span&gt;jika &quot;false&quot;&amp;nbsp; input (x)&lt;/span&gt;&lt;/div&gt;&#9;&lt;/span&gt;&lt;span style=&quot;border-color: var(--border-color); font-family: Helvetica;&quot;&gt;&lt;div style=&quot;text-align: left;&quot;&gt;&lt;span style=&quot;background-color: initial;&quot;&gt;&lt;span style=&quot;white-space: pre;&quot;&gt;&#9;&lt;/span&gt;jika &quot;true&quot;&amp;nbsp; cek x % 2 == 0&lt;/span&gt;&lt;/div&gt;&#9;&lt;/span&gt;&lt;span style=&quot;border-color: var(--border-color); font-family: Helvetica;&quot;&gt;&lt;div style=&quot;text-align: left;&quot;&gt;&lt;span style=&quot;background-color: initial;&quot;&gt;&lt;span style=&quot;white-space: pre;&quot;&gt;&#9;&lt;/span&gt;jika &quot;true&quot; output &quot;genap&quot;&lt;/span&gt;&lt;/div&gt;&#9;&lt;/span&gt;&lt;span style=&quot;border-color: var(--border-color); font-family: Helvetica;&quot;&gt;&lt;div style=&quot;text-align: left;&quot;&gt;&lt;span style=&quot;background-color: initial;&quot;&gt;&lt;span style=&quot;white-space: pre;&quot;&gt;&#9;&lt;/span&gt;jika &quot;false&quot; output &quot;ganjil&quot;&lt;/span&gt;&lt;/div&gt;&#9;&lt;/span&gt;&lt;span style=&quot;font-family: Helvetica;&quot;&gt;&lt;div style=&quot;text-align: left;&quot;&gt;&lt;span style=&quot;background-color: initial;&quot;&gt;Selesai&lt;/span&gt;&lt;/div&gt;&lt;/span&gt;" style="text;html=1;align=center;verticalAlign=middle;resizable=0;points=[];autosize=1;strokeColor=default;fillColor=none;fontSize=20;fontFamily=Architects Daughter;sketch=1;hachureGap=4;jiggle=2;curveFitting=1;fontSource=https%3A%2F%2Ffonts.googleapis.com%2Fcss%3Ffamily%3DArchitects%2BDaughter;" parent="1" vertex="1">
                    <mxGeometry x="973" y="419" width="642" height="332" as="geometry"/>
                </mxCell>
                <mxCell id="2" value="" style="group;strokeColor=default;" parent="1" vertex="1" connectable="0">
                    <mxGeometry x="12" y="954" width="832" height="1227" as="geometry"/>
                </mxCell>
                <mxCell id="Iu7elVV2P66PyxeBPG_O-5" value="&lt;b&gt;&lt;font style=&quot;font-size: 24px;&quot;&gt;Algoritma Pseudocode Menentukan Nilai Terbesar :&lt;/font&gt;&lt;/b&gt;" style="text;html=1;align=center;verticalAlign=middle;resizable=0;points=[];autosize=1;strokeColor=none;fillColor=none;fontSize=20;fontFamily=Helvetica;sketch=1;hachureGap=4;jiggle=2;curveFitting=1;fontSource=https%3A%2F%2Ffonts.googleapis.com%2Fcss%3Ffamily%3DArchitects%2BDaughter;" parent="2" vertex="1">
                    <mxGeometry x="136.95999999999998" width="604" height="41" as="geometry"/>
                </mxCell>
                <mxCell id="5" value="" style="edgeStyle=none;sketch=1;hachureGap=4;jiggle=2;curveFitting=1;html=1;fontFamily=Architects Daughter;fontSource=https%3A%2F%2Ffonts.googleapis.com%2Fcss%3Ffamily%3DArchitects%2BDaughter;fontSize=16;exitX=0.5;exitY=1;exitDx=0;exitDy=0;" parent="2" source="Iu7elVV2P66PyxeBPG_O-6" target="Iu7elVV2P66PyxeBPG_O-11" edge="1">
                    <mxGeometry relative="1" as="geometry"/>
                </mxCell>
                <mxCell id="Iu7elVV2P66PyxeBPG_O-6" value="MULAI" style="ellipse;whiteSpace=wrap;html=1;sketch=1;hachureGap=4;jiggle=2;curveFitting=1;fontFamily=Helvetica;fontSize=20;" parent="2" vertex="1">
                    <mxGeometry x="381" y="103" width="120" height="80" as="geometry"/>
                </mxCell>
                <mxCell id="Iu7elVV2P66PyxeBPG_O-11" value="INPUT x,&amp;nbsp; y" style="shape=parallelogram;perimeter=parallelogramPerimeter;whiteSpace=wrap;html=1;fixedSize=1;sketch=1;hachureGap=4;jiggle=2;curveFitting=1;fontFamily=Helvetica;fontSize=20;" parent="2" vertex="1">
                    <mxGeometry x="356.09" y="258" width="175.5" height="63" as="geometry"/>
                </mxCell>
                <mxCell id="Iu7elVV2P66PyxeBPG_O-13" value="x == NUMBER &amp;amp;&amp;amp;&lt;br&gt;y == NUMBER" style="rhombus;whiteSpace=wrap;html=1;sketch=1;hachureGap=4;jiggle=2;curveFitting=1;fontFamily=Helvetica;fontSize=20;" parent="2" vertex="1">
                    <mxGeometry x="322.5" y="374" width="242.67" height="149" as="geometry"/>
                </mxCell>
                <mxCell id="Iu7elVV2P66PyxeBPG_O-14" value="" style="edgeStyle=none;sketch=1;hachureGap=4;jiggle=2;curveFitting=1;html=1;fontFamily=Helvetica;fontSize=16;" parent="2" source="Iu7elVV2P66PyxeBPG_O-11" target="Iu7elVV2P66PyxeBPG_O-13" edge="1">
                    <mxGeometry relative="1" as="geometry"/>
                </mxCell>
                <mxCell id="Iu7elVV2P66PyxeBPG_O-15" value="x &amp;gt; y" style="rhombus;whiteSpace=wrap;html=1;sketch=1;hachureGap=4;jiggle=2;curveFitting=1;fontFamily=Helvetica;fontSize=20;" parent="2" vertex="1">
                    <mxGeometry x="352" y="583" width="193.25" height="127" as="geometry"/>
                </mxCell>
                <mxCell id="Iu7elVV2P66PyxeBPG_O-23" value="Iya" style="edgeStyle=none;sketch=1;hachureGap=4;jiggle=2;curveFitting=1;html=1;exitX=0.5;exitY=1;exitDx=0;exitDy=0;entryX=0.5;entryY=0;entryDx=0;entryDy=0;fontFamily=Helvetica;fontSize=16;" parent="2" source="Iu7elVV2P66PyxeBPG_O-13" target="Iu7elVV2P66PyxeBPG_O-15" edge="1">
                    <mxGeometry relative="1" as="geometry">
                        <Array as="points"/>
                    </mxGeometry>
                </mxCell>
                <mxCell id="Iu7elVV2P66PyxeBPG_O-16" value="OUTPUT&lt;br&gt;&quot;y adalah nilai terbesar&quot;" style="shape=parallelogram;perimeter=parallelogramPerimeter;whiteSpace=wrap;html=1;fixedSize=1;sketch=1;hachureGap=4;jiggle=2;curveFitting=1;fontFamily=Helvetica;fontSize=20;" parent="2" vertex="1">
                    <mxGeometry x="16" y="736" width="329" height="103" as="geometry"/>
                </mxCell>
                <mxCell id="Iu7elVV2P66PyxeBPG_O-17" value="Tidak" style="edgeStyle=none;sketch=1;hachureGap=4;jiggle=2;curveFitting=1;html=1;fontFamily=Helvetica;fontSize=16;exitX=0;exitY=0.5;exitDx=0;exitDy=0;" parent="2" source="Iu7elVV2P66PyxeBPG_O-15" target="Iu7elVV2P66PyxeBPG_O-16" edge="1">
                    <mxGeometry relative="1" as="geometry">
                        <Array as="points">
                            <mxPoint x="177" y="646"/>
                        </Array>
                    </mxGeometry>
                </mxCell>
                <mxCell id="Iu7elVV2P66PyxeBPG_O-18" value="OUTPUT&lt;br&gt;&quot;x adalah nilai terbesar&quot;" style="shape=parallelogram;perimeter=parallelogramPerimeter;whiteSpace=wrap;html=1;fixedSize=1;sketch=1;hachureGap=4;jiggle=2;curveFitting=1;fontFamily=Helvetica;fontSize=20;" parent="2" vertex="1">
                    <mxGeometry x="512" y="744" width="306" height="82" as="geometry"/>
                </mxCell>
                <mxCell id="Iu7elVV2P66PyxeBPG_O-19" value="Iya" style="edgeStyle=none;sketch=1;hachureGap=4;jiggle=2;curveFitting=1;html=1;fontFamily=Helvetica;fontSize=16;exitX=1;exitY=0.5;exitDx=0;exitDy=0;" parent="2" source="Iu7elVV2P66PyxeBPG_O-15" target="Iu7elVV2P66PyxeBPG_O-18" edge="1">
                    <mxGeometry relative="1" as="geometry">
                        <Array as="points">
                            <mxPoint x="663" y="642"/>
                        </Array>
                    </mxGeometry>
                </mxCell>
                <mxCell id="Iu7elVV2P66PyxeBPG_O-20" value="SELESAI" style="ellipse;whiteSpace=wrap;html=1;sketch=1;hachureGap=4;jiggle=2;curveFitting=1;fontFamily=Helvetica;fontSize=20;" parent="2" vertex="1">
                    <mxGeometry x="375.46" y="884" width="120" height="80" as="geometry"/>
                </mxCell>
                <mxCell id="Iu7elVV2P66PyxeBPG_O-21" style="edgeStyle=none;sketch=1;hachureGap=4;jiggle=2;curveFitting=1;html=1;fontFamily=Helvetica;fontSize=16;entryX=0;entryY=0.5;entryDx=0;entryDy=0;" parent="2" source="Iu7elVV2P66PyxeBPG_O-16" target="Iu7elVV2P66PyxeBPG_O-20" edge="1">
                    <mxGeometry relative="1" as="geometry">
                        <Array as="points">
                            <mxPoint x="181" y="931"/>
                        </Array>
                    </mxGeometry>
                </mxCell>
                <mxCell id="Iu7elVV2P66PyxeBPG_O-22" style="edgeStyle=none;sketch=1;hachureGap=4;jiggle=2;curveFitting=1;html=1;entryX=1;entryY=0.5;entryDx=0;entryDy=0;fontFamily=Helvetica;fontSize=16;" parent="2" source="Iu7elVV2P66PyxeBPG_O-18" target="Iu7elVV2P66PyxeBPG_O-20" edge="1">
                    <mxGeometry relative="1" as="geometry">
                        <Array as="points">
                            <mxPoint x="683" y="931"/>
                        </Array>
                    </mxGeometry>
                </mxCell>
                <mxCell id="Iu7elVV2P66PyxeBPG_O-26" style="edgeStyle=none;sketch=1;hachureGap=4;jiggle=2;curveFitting=1;html=1;entryX=0;entryY=0.5;entryDx=0;entryDy=0;fontFamily=Helvetica;fontSize=16;" parent="2" source="Iu7elVV2P66PyxeBPG_O-24" target="Iu7elVV2P66PyxeBPG_O-11" edge="1">
                    <mxGeometry relative="1" as="geometry">
                        <Array as="points">
                            <mxPoint x="111" y="292"/>
                        </Array>
                    </mxGeometry>
                </mxCell>
                <mxCell id="Iu7elVV2P66PyxeBPG_O-24" value="OUTPUT&lt;br&gt;&quot;masukan angka&quot;" style="shape=parallelogram;perimeter=parallelogramPerimeter;whiteSpace=wrap;html=1;fixedSize=1;sketch=1;hachureGap=4;jiggle=2;curveFitting=1;fontFamily=Helvetica;fontSize=20;" parent="2" vertex="1">
                    <mxGeometry x="8" y="394" width="228" height="98" as="geometry"/>
                </mxCell>
                <mxCell id="Iu7elVV2P66PyxeBPG_O-25" value="Tidak" style="edgeStyle=none;sketch=1;hachureGap=4;jiggle=2;curveFitting=1;html=1;fontFamily=Helvetica;fontSize=16;entryX=1;entryY=0.5;entryDx=0;entryDy=0;" parent="2" source="Iu7elVV2P66PyxeBPG_O-13" target="Iu7elVV2P66PyxeBPG_O-24" edge="1">
                    <mxGeometry relative="1" as="geometry">
                        <mxPoint x="291.9964545039365" y="443.3713729307119" as="targetPoint"/>
                    </mxGeometry>
                </mxCell>
                <mxCell id="4" value="" style="group;strokeColor=default;" parent="1" vertex="1" connectable="0">
                    <mxGeometry x="935" y="954" width="709" height="1224" as="geometry"/>
                </mxCell>
                <mxCell id="Uwi-GKpS9V9aAOqQGrbS-2" value="&lt;b&gt;&lt;font style=&quot;font-size: 24px;&quot;&gt;Algoritma Flowchart menentukan ganjil genap :&lt;/font&gt;&lt;/b&gt;" style="text;html=1;align=center;verticalAlign=middle;resizable=0;points=[];autosize=1;strokeColor=none;fillColor=none;fontSize=20;fontFamily=Helvetica;sketch=1;hachureGap=4;jiggle=2;curveFitting=1;fontSource=https%3A%2F%2Ffonts.googleapis.com%2Fcss%3Ffamily%3DArchitects%2BDaughter;" parent="4" vertex="1">
                    <mxGeometry x="120" width="559" height="41" as="geometry"/>
                </mxCell>
                <mxCell id="Uwi-GKpS9V9aAOqQGrbS-4" value="MULAI" style="ellipse;whiteSpace=wrap;html=1;sketch=1;hachureGap=4;jiggle=2;curveFitting=1;fontFamily=Helvetica;fontSize=20;" parent="4" vertex="1">
                    <mxGeometry x="339.5" y="63.58441558441558" width="120" height="74.8051948051948" as="geometry"/>
                </mxCell>
                <mxCell id="Uwi-GKpS9V9aAOqQGrbS-9" value="x == NUMBER" style="rhombus;whiteSpace=wrap;html=1;sketch=1;hachureGap=4;jiggle=2;curveFitting=1;fontFamily=Helvetica;fontSize=20;" parent="4" vertex="1">
                    <mxGeometry x="315.5" y="404.8831168831169" width="170" height="129.03896103896105" as="geometry"/>
                </mxCell>
                <mxCell id="Uwi-GKpS9V9aAOqQGrbS-11" value="OUTPUT&lt;br&gt;&quot;masukan angka&quot;" style="shape=parallelogram;perimeter=parallelogramPerimeter;whiteSpace=wrap;html=1;fixedSize=1;sketch=1;hachureGap=4;jiggle=2;curveFitting=1;fontFamily=Helvetica;fontSize=20;" parent="4" vertex="1">
                    <mxGeometry y="442.2857142857143" width="243" height="80.41558441558442" as="geometry"/>
                </mxCell>
                <mxCell id="Uwi-GKpS9V9aAOqQGrbS-8" value="Tidak" style="edgeStyle=none;sketch=1;hachureGap=4;jiggle=2;curveFitting=1;html=1;fontFamily=Helvetica;fontSize=16;" parent="4" source="Uwi-GKpS9V9aAOqQGrbS-9" target="Uwi-GKpS9V9aAOqQGrbS-11" edge="1">
                    <mxGeometry relative="1" as="geometry"/>
                </mxCell>
                <mxCell id="Uwi-GKpS9V9aAOqQGrbS-14" value="x % 2 == 0" style="rhombus;whiteSpace=wrap;html=1;sketch=1;hachureGap=4;jiggle=2;curveFitting=1;fontFamily=Helvetica;fontSize=20;" parent="4" vertex="1">
                    <mxGeometry x="320" y="606.8571428571429" width="170" height="129.03896103896105" as="geometry"/>
                </mxCell>
                <mxCell id="Uwi-GKpS9V9aAOqQGrbS-7" value="Iya" style="edgeStyle=none;sketch=1;hachureGap=4;jiggle=2;curveFitting=1;html=1;fontFamily=Helvetica;fontSize=16;" parent="4" source="Uwi-GKpS9V9aAOqQGrbS-9" target="Uwi-GKpS9V9aAOqQGrbS-14" edge="1">
                    <mxGeometry relative="1" as="geometry"/>
                </mxCell>
                <mxCell id="Uwi-GKpS9V9aAOqQGrbS-16" value="OUTPUT&lt;br&gt;&quot;genap&quot;" style="shape=parallelogram;perimeter=parallelogramPerimeter;whiteSpace=wrap;html=1;fixedSize=1;sketch=1;hachureGap=4;jiggle=2;curveFitting=1;fontFamily=Helvetica;fontSize=20;" parent="4" vertex="1">
                    <mxGeometry x="493" y="821.9220779220778" width="216" height="81.35064935064935" as="geometry"/>
                </mxCell>
                <mxCell id="Uwi-GKpS9V9aAOqQGrbS-12" value="Iya" style="edgeStyle=none;sketch=1;hachureGap=4;jiggle=2;curveFitting=1;html=1;fontFamily=Helvetica;fontSize=16;exitX=1;exitY=0.5;exitDx=0;exitDy=0;entryX=0.5;entryY=0;entryDx=0;entryDy=0;" parent="4" source="Uwi-GKpS9V9aAOqQGrbS-14" target="Uwi-GKpS9V9aAOqQGrbS-16" edge="1">
                    <mxGeometry relative="1" as="geometry">
                        <Array as="points">
                            <mxPoint x="601" y="666.7012987012987"/>
                        </Array>
                    </mxGeometry>
                </mxCell>
                <mxCell id="Uwi-GKpS9V9aAOqQGrbS-18" value="OUTPUT&lt;br&gt;&quot;ganjil&quot;" style="shape=parallelogram;perimeter=parallelogramPerimeter;whiteSpace=wrap;html=1;fixedSize=1;sketch=1;hachureGap=4;jiggle=2;curveFitting=1;fontFamily=Helvetica;fontSize=20;" parent="4" vertex="1">
                    <mxGeometry x="108" y="829.4025974025974" width="216" height="81.35064935064935" as="geometry"/>
                </mxCell>
                <mxCell id="Uwi-GKpS9V9aAOqQGrbS-13" value="Tidak" style="edgeStyle=none;sketch=1;hachureGap=4;jiggle=2;curveFitting=1;html=1;exitX=0;exitY=0.5;exitDx=0;exitDy=0;entryX=0.5;entryY=0;entryDx=0;entryDy=0;fontFamily=Helvetica;fontSize=16;" parent="4" source="Uwi-GKpS9V9aAOqQGrbS-14" target="Uwi-GKpS9V9aAOqQGrbS-18" edge="1">
                    <mxGeometry relative="1" as="geometry">
                        <Array as="points">
                            <mxPoint x="209" y="671.3766233766233"/>
                        </Array>
                    </mxGeometry>
                </mxCell>
                <mxCell id="Uwi-GKpS9V9aAOqQGrbS-19" value="SELESAI" style="ellipse;whiteSpace=wrap;html=1;sketch=1;hachureGap=4;jiggle=2;curveFitting=1;fontFamily=Helvetica;fontSize=20;" parent="4" vertex="1">
                    <mxGeometry x="331" y="1023.8961038961039" width="120" height="74.8051948051948" as="geometry"/>
                </mxCell>
                <mxCell id="Uwi-GKpS9V9aAOqQGrbS-15" style="edgeStyle=none;sketch=1;hachureGap=4;jiggle=2;curveFitting=1;html=1;entryX=0.993;entryY=0.62;entryDx=0;entryDy=0;entryPerimeter=0;fontFamily=Helvetica;fontSize=16;" parent="4" source="Uwi-GKpS9V9aAOqQGrbS-16" target="Uwi-GKpS9V9aAOqQGrbS-19" edge="1">
                    <mxGeometry relative="1" as="geometry">
                        <Array as="points">
                            <mxPoint x="620" y="1084.6753246753246"/>
                        </Array>
                    </mxGeometry>
                </mxCell>
                <mxCell id="Uwi-GKpS9V9aAOqQGrbS-17" style="edgeStyle=none;sketch=1;hachureGap=4;jiggle=2;curveFitting=1;html=1;entryX=0.021;entryY=0.667;entryDx=0;entryDy=0;entryPerimeter=0;fontFamily=Helvetica;fontSize=16;" parent="4" source="Uwi-GKpS9V9aAOqQGrbS-18" target="Uwi-GKpS9V9aAOqQGrbS-19" edge="1">
                    <mxGeometry relative="1" as="geometry">
                        <Array as="points">
                            <mxPoint x="216" y="1088.4155844155844"/>
                        </Array>
                    </mxGeometry>
                </mxCell>
                <mxCell id="Uwi-GKpS9V9aAOqQGrbS-20" value="" style="edgeStyle=none;sketch=1;hachureGap=4;jiggle=2;curveFitting=1;html=1;fontFamily=Helvetica;fontSize=16;" parent="4" source="Uwi-GKpS9V9aAOqQGrbS-21" target="Uwi-GKpS9V9aAOqQGrbS-9" edge="1">
                    <mxGeometry relative="1" as="geometry"/>
                </mxCell>
                <mxCell id="Uwi-GKpS9V9aAOqQGrbS-21" value="INPUT x" style="shape=parallelogram;perimeter=parallelogramPerimeter;whiteSpace=wrap;html=1;fixedSize=1;sketch=1;hachureGap=4;jiggle=2;curveFitting=1;fontFamily=Helvetica;fontSize=20;" parent="4" vertex="1">
                    <mxGeometry x="315" y="245.9220779220779" width="169" height="65.45454545454545" as="geometry"/>
                </mxCell>
                <mxCell id="Uwi-GKpS9V9aAOqQGrbS-5" style="edgeStyle=none;sketch=1;hachureGap=4;jiggle=2;curveFitting=1;html=1;entryX=0.5;entryY=0;entryDx=0;entryDy=0;fontFamily=Helvetica;fontSize=16;exitX=0.5;exitY=1;exitDx=0;exitDy=0;" parent="4" source="Uwi-GKpS9V9aAOqQGrbS-4" target="Uwi-GKpS9V9aAOqQGrbS-21" edge="1">
                    <mxGeometry relative="1" as="geometry">
                        <mxPoint x="391.9000000000001" y="133.71428571428572" as="sourcePoint"/>
                    </mxGeometry>
                </mxCell>
                <mxCell id="Uwi-GKpS9V9aAOqQGrbS-10" style="edgeStyle=none;sketch=1;hachureGap=4;jiggle=2;curveFitting=1;html=1;entryX=0;entryY=0.5;entryDx=0;entryDy=0;fontFamily=Helvetica;fontSize=16;" parent="4" source="Uwi-GKpS9V9aAOqQGrbS-11" target="Uwi-GKpS9V9aAOqQGrbS-21" edge="1">
                    <mxGeometry relative="1" as="geometry">
                        <Array as="points">
                            <mxPoint x="126" y="278.64935064935065"/>
                        </Array>
                    </mxGeometry>
                </mxCell>
            </root>
        </mxGraphModel>
    </diagram>
</mxfile>